<svg fill="none" height="594" viewBox="0 0 466 594" width="466" xmlns="http://www.w3.org/2000/svg" xmlns:xlink="http://www.w3.org/1999/xlink"><clipPath id="a"><path d="m.265625 0h465v594h-465z"/></clipPath><g clip-path="url(#a)"><path d="m5.74063 14.21c2.97 0 4.46997-2.07 4.46997-4.635v-1.65c0-2.565-1.49997-4.635-4.46997-4.635s-4.47 2.07-4.47 4.635v1.65c0 2.565 1.5 4.635 4.47 4.635zm0-1.155c-2.13 0-3.09-1.5-3.09-3.405v-1.8c0-1.905.96-3.405 3.09-3.405s3.09 1.5 3.09 3.405v1.8c0 1.905-.96 3.405-3.09 3.405zm7.10347.945h1.35v-6.615h1.815v-1.095h-1.815v-1.02c0-.81.33-1.14 1.095-1.14h.96v-1.08h-1.14c-1.56 0-2.265.75-2.265 2.295v.945h-1.08v1.095h1.08zm5.2441 0h1.35v-6.615h1.815v-1.095h-1.815v-1.02c0-.81.33-1.14 1.095-1.14h.96v-1.08h-1.14c-1.56 0-2.265.75-2.265 2.295v.945h-1.08v1.095h1.08zm4.0554-4.11h4.26v-1.2h-4.26zm10.6366 4.32c2.49 0 4.05-1.725 4.2-3.735h-1.305c-.18 1.38-1.095 2.595-2.91 2.595-2.055 0-3.015-1.44-3.015-3.405v-1.83c0-1.965.96-3.405 3.015-3.405 1.815 0 2.73 1.215 2.91 2.595h1.305c-.15-2.01-1.71-3.735-4.2-3.735-2.955 0-4.41 1.98-4.41 4.605v1.71c0 2.625 1.455 4.605 4.41 4.605zm6.2873-.21h1.335v-4.545c0-1.455.885-2.175 2.07-2.175 1.29 0 1.83.825 1.83 2.04v4.68h1.35v-4.875c0-1.845-1.095-3.015-2.805-3.015-1.215 0-2.01.54-2.445 1.305v-4.365h-1.335zm9.6126-8.94c.48 0 .825-.33.825-.795s-.345-.795-.825-.795c-.495 0-.825.33-.825.795s.33.795.825.795zm-.675 8.94h1.335v-7.71h-1.335zm3.7626 2.61h1.335v-3.675c.45.735 1.335 1.245 2.49 1.245 1.98 0 3.21-1.47 3.21-3.435v-1.2c0-1.92-1.155-3.435-3.225-3.435-1.245 0-2.19.645-2.535 1.32v-1.14h-1.275zm3.555-3.525c-1.2 0-2.22-.9-2.22-2.385v-1.02c0-1.41.795-2.475 2.205-2.475 1.5 0 2.145 1.08 2.145 2.4v1.08c0 1.35-.75 2.4-2.13 2.4z" fill="#191927"/><path d="m5.74063 554.101c2.97 0 4.46997-2.07 4.46997-4.635v-1.65c0-2.565-1.49997-4.635-4.46997-4.635s-4.47 2.07-4.47 4.635v1.65c0 2.565 1.5 4.635 4.47 4.635zm0-1.155c-2.13 0-3.09-1.5-3.09-3.405v-1.8c0-1.905.96-3.405 3.09-3.405s3.09 1.5 3.09 3.405v1.8c0 1.905-.96 3.405-3.09 3.405zm7.10347.945h1.35v-6.615h1.815v-1.095h-1.815v-1.02c0-.81.33-1.14 1.095-1.14h.96v-1.08h-1.14c-1.56 0-2.265.75-2.265 2.295v.945h-1.08v1.095h1.08zm5.2441 0h1.35v-6.615h1.815v-1.095h-1.815v-1.02c0-.81.33-1.14 1.095-1.14h.96v-1.08h-1.14c-1.56 0-2.265.75-2.265 2.295v.945h-1.08v1.095h1.08zm4.0554-4.11h4.26v-1.2h-4.26zm10.6366 4.32c2.49 0 4.05-1.725 4.2-3.735h-1.305c-.18 1.38-1.095 2.595-2.91 2.595-2.055 0-3.015-1.44-3.015-3.405v-1.83c0-1.965.96-3.405 3.015-3.405 1.815 0 2.73 1.215 2.91 2.595h1.305c-.15-2.01-1.71-3.735-4.2-3.735-2.955 0-4.41 1.98-4.41 4.605v1.71c0 2.625 1.455 4.605 4.41 4.605zm6.2873-.21h1.335v-4.545c0-1.455.885-2.175 2.07-2.175 1.29 0 1.83.825 1.83 2.04v4.68h1.35v-4.875c0-1.845-1.095-3.015-2.805-3.015-1.215 0-2.01.54-2.445 1.305v-4.365h-1.335zm9.6126-8.94c.48 0 .825-.33.825-.795s-.345-.795-.825-.795c-.495 0-.825.33-.825.795s.33.795.825.795zm-.675 8.94h1.335v-7.71h-1.335zm3.7626 2.61h1.335v-3.675c.45.735 1.335 1.245 2.49 1.245 1.98 0 3.21-1.47 3.21-3.435v-1.2c0-1.92-1.155-3.435-3.225-3.435-1.245 0-2.19.645-2.535 1.32v-1.14h-1.275zm3.555-3.525c-1.2 0-2.22-.9-2.22-2.385v-1.02c0-1.41.795-2.475 2.205-2.475 1.5 0 2.145 1.08 2.145 2.4v1.08c0 1.35-.75 2.4-2.13 2.4z" fill="#191927"/><path d="m.265625 24h465v30h-465z" fill="#cae5f2"/><path d="m162.639 45h4.02c2.7 0 4.17-1.71 4.17-4.05v-2.4c0-2.34-1.47-4.05-4.17-4.05h-4.02zm1.365-1.125v-8.25h2.445c1.98 0 3.015 1.17 3.015 2.925v2.4c0 1.755-1.035 2.925-3.015 2.925zm9.138 1.125h1.38v-3.735h3l2.085 3.735h1.59l-2.265-3.945c1.395-.48 2.22-1.695 2.22-3.165 0-1.89-1.245-3.39-3.585-3.39h-4.425zm1.38-4.83v-4.545h2.865c1.56 0 2.385.96 2.385 2.265s-.795 2.28-2.385 2.28zm8.122 4.83h1.365l.885-2.565h4.665l.915 2.565h1.365l-3.915-10.5h-1.38zm2.625-3.66 1.965-5.595 1.95 5.595zm8.395 3.66h1.305v-7.845l2.685 5.31h1.29l2.685-5.31v7.845h1.305v-10.5h-1.275l-3.36 6.72-3.36-6.72h-1.275zm16.81 2.01h1.305c-1.23-2.61-1.77-4.635-1.77-6.87s.54-4.26 1.77-6.87h-1.305c-1.23 2.325-1.815 4.44-1.815 6.87s.585 4.545 1.815 6.87zm6.943-1.8c2.685 0 4.245-1.755 4.245-4.2v-1.155h-4.155v1.14h2.82v.24c0 1.83-1.095 2.865-2.895 2.865-2.175 0-3.045-1.515-3.045-3.525v-1.71c0-2.025.93-3.435 2.985-3.435 1.8 0 2.82 1.155 2.865 2.55h1.32c-.06-2.1-1.605-3.69-4.2-3.69-2.805 0-4.35 1.905-4.35 4.62v1.635c0 2.58 1.44 4.665 4.41 4.665zm6.555-.21h4.02c2.7 0 4.17-1.71 4.17-4.05v-2.4c0-2.34-1.47-4.05-4.17-4.05h-4.02zm1.365-1.125v-8.25h2.445c1.98 0 3.015 1.17 3.015 2.925v2.4c0 1.755-1.035 2.925-3.015 2.925zm9.138 1.125h4.02c2.7 0 4.17-1.71 4.17-4.05v-2.4c0-2.34-1.47-4.05-4.17-4.05h-4.02zm1.365-1.125v-8.25h2.445c1.98 0 3.015 1.17 3.015 2.925v2.4c0 1.755-1.035 2.925-3.015 2.925zm9.138 1.125h1.38v-3.735h3l2.085 3.735h1.59l-2.265-3.945c1.395-.48 2.22-1.695 2.22-3.165 0-1.89-1.245-3.39-3.585-3.39h-4.425zm1.38-4.83v-4.545h2.865c1.56 0 2.385.96 2.385 2.265s-.795 2.28-2.385 2.28zm11.315 6.405h1.275l4.23-12.825h-1.275zm10.625-1.575h1.38v-4.65h5.265v4.65h1.38v-10.5h-1.38v4.62h-5.265v-4.62h-1.38zm10.664 0h4.515c2.07 0 3.42-1.125 3.42-2.88 0-1.5-.975-2.295-2.115-2.55.855-.405 1.5-1.245 1.5-2.445 0-1.53-1.05-2.625-2.91-2.625h-4.41zm1.335-5.895v-3.525h2.775c1.185 0 1.845.72 1.845 1.725 0 .975-.63 1.8-1.845 1.8zm0 4.815v-3.735h3.09c1.35 0 2.145.75 2.145 1.86 0 1.185-.765 1.875-2.145 1.875zm8.611 1.08h1.305v-7.845l2.685 5.31h1.29l2.685-5.31v7.845h1.305v-10.5h-1.275l-3.36 6.72-3.36-6.72h-1.275zm11.084 2.01h1.305c1.215-2.325 1.815-4.44 1.815-6.87s-.6-4.545-1.815-6.87h-1.305c1.215 2.61 1.77 4.635 1.77 6.87s-.555 4.26-1.77 6.87z" fill="#191927"/><path d="m5.74063 114.21c2.97 0 4.46997-2.07 4.46997-4.635v-1.65c0-2.565-1.49997-4.635-4.46997-4.635s-4.47 2.07-4.47 4.635v1.65c0 2.565 1.5 4.635 4.47 4.635zm0-1.155c-2.13 0-3.09-1.5-3.09-3.405v-1.8c0-1.905.96-3.405 3.09-3.405s3.09 1.5 3.09 3.405v1.8c0 1.905-.96 3.405-3.09 3.405zm6.65207.945h1.335v-4.545c0-1.455.885-2.175 2.07-2.175 1.29 0 1.83.825 1.83 2.04v4.68h1.35v-4.875c0-1.86-1.095-3.015-2.805-3.015-1.29 0-2.145.57-2.505 1.41v-1.23h-1.275zm8.6376-4.11h4.26v-1.2h-4.26zm10.6367 4.32c2.49 0 4.05-1.725 4.2-3.735h-1.305c-.18 1.38-1.095 2.595-2.91 2.595-2.055 0-3.015-1.44-3.015-3.405v-1.83c0-1.965.96-3.405 3.015-3.405 1.815 0 2.73 1.215 2.91 2.595h1.305c-.15-2.01-1.71-3.735-4.2-3.735-2.955 0-4.41 1.98-4.41 4.605v1.71c0 2.625 1.455 4.605 4.41 4.605zm6.2872-.21h1.335v-4.545c0-1.455.885-2.175 2.07-2.175 1.29 0 1.83.825 1.83 2.04v4.68h1.35v-4.875c0-1.845-1.095-3.015-2.805-3.015-1.215 0-2.01.54-2.445 1.305v-4.365h-1.335zm9.6126-8.94c.48 0 .825-.33.825-.795s-.345-.795-.825-.795c-.495 0-.825.33-.825.795s.33.795.825.795zm-.675 8.94h1.335v-7.71h-1.335zm3.7626 2.61h1.335v-3.675c.45.735 1.335 1.245 2.49 1.245 1.98 0 3.21-1.47 3.21-3.435v-1.2c0-1.92-1.155-3.435-3.225-3.435-1.245 0-2.19.645-2.535 1.32v-1.14h-1.275zm3.555-3.525c-1.2 0-2.22-.9-2.22-2.385v-1.02c0-1.41.795-2.475 2.205-2.475 1.5 0 2.145 1.08 2.145 2.4v1.08c0 1.35-.75 2.4-2.13 2.4z" fill="#191927"/><path d="m.265625 563.891h465v30h-465z" fill="#cae5f2"/><path d="m162.639 584.891h4.02c2.7 0 4.17-1.71 4.17-4.05v-2.4c0-2.34-1.47-4.05-4.17-4.05h-4.02zm1.365-1.125v-8.25h2.445c1.98 0 3.015 1.17 3.015 2.925v2.4c0 1.755-1.035 2.925-3.015 2.925zm9.138 1.125h1.38v-3.735h3l2.085 3.735h1.59l-2.265-3.945c1.395-.48 2.22-1.695 2.22-3.165 0-1.89-1.245-3.39-3.585-3.39h-4.425zm1.38-4.83v-4.545h2.865c1.56 0 2.385.96 2.385 2.265s-.795 2.28-2.385 2.28zm8.122 4.83h1.365l.885-2.565h4.665l.915 2.565h1.365l-3.915-10.5h-1.38zm2.625-3.66 1.965-5.595 1.95 5.595zm8.395 3.66h1.305v-7.845l2.685 5.31h1.29l2.685-5.31v7.845h1.305v-10.5h-1.275l-3.36 6.72-3.36-6.72h-1.275zm16.81 2.01h1.305c-1.23-2.61-1.77-4.635-1.77-6.87s.54-4.26 1.77-6.87h-1.305c-1.23 2.325-1.815 4.44-1.815 6.87s.585 4.545 1.815 6.87zm6.943-1.8c2.685 0 4.245-1.755 4.245-4.2v-1.155h-4.155v1.14h2.82v.24c0 1.83-1.095 2.865-2.895 2.865-2.175 0-3.045-1.515-3.045-3.525v-1.71c0-2.025.93-3.435 2.985-3.435 1.8 0 2.82 1.155 2.865 2.55h1.32c-.06-2.1-1.605-3.69-4.2-3.69-2.805 0-4.35 1.905-4.35 4.62v1.635c0 2.58 1.44 4.665 4.41 4.665zm6.555-.21h4.02c2.7 0 4.17-1.71 4.17-4.05v-2.4c0-2.34-1.47-4.05-4.17-4.05h-4.02zm1.365-1.125v-8.25h2.445c1.98 0 3.015 1.17 3.015 2.925v2.4c0 1.755-1.035 2.925-3.015 2.925zm9.138 1.125h4.02c2.7 0 4.17-1.71 4.17-4.05v-2.4c0-2.34-1.47-4.05-4.17-4.05h-4.02zm1.365-1.125v-8.25h2.445c1.98 0 3.015 1.17 3.015 2.925v2.4c0 1.755-1.035 2.925-3.015 2.925zm9.138 1.125h1.38v-3.735h3l2.085 3.735h1.59l-2.265-3.945c1.395-.48 2.22-1.695 2.22-3.165 0-1.89-1.245-3.39-3.585-3.39h-4.425zm1.38-4.83v-4.545h2.865c1.56 0 2.385.96 2.385 2.265s-.795 2.28-2.385 2.28zm11.315 6.405h1.275l4.23-12.825h-1.275zm10.625-1.575h1.38v-4.65h5.265v4.65h1.38v-10.5h-1.38v4.62h-5.265v-4.62h-1.38zm10.664 0h4.515c2.07 0 3.42-1.125 3.42-2.88 0-1.5-.975-2.295-2.115-2.55.855-.405 1.5-1.245 1.5-2.445 0-1.53-1.05-2.625-2.91-2.625h-4.41zm1.335-5.895v-3.525h2.775c1.185 0 1.845.72 1.845 1.725 0 .975-.63 1.8-1.845 1.8zm0 4.815v-3.735h3.09c1.35 0 2.145.75 2.145 1.86 0 1.185-.765 1.875-2.145 1.875zm8.611 1.08h1.305v-7.845l2.685 5.31h1.29l2.685-5.31v7.845h1.305v-10.5h-1.275l-3.36 6.72-3.36-6.72h-1.275zm11.084 2.01h1.305c1.215-2.325 1.815-4.44 1.815-6.87s-.6-4.545-1.815-6.87h-1.305c1.215 2.61 1.77 4.635 1.77 6.87s-.555 4.26-1.77 6.87z" fill="#191927"/><path d="m10.2656 274h445v70h-445z" fill="#21b5c2"/><rect height="369" rx="3.5" stroke="#c5c5d2" width="464" x=".765625" y="124.5"/><path d="m10.2656 134h445v30h-445z" fill="#cae5f2"/><path d="m170.006 155h1.305v-7.845l2.685 5.31h1.29l2.685-5.31v7.845h1.305v-10.5h-1.275l-3.36 6.72-3.36-6.72h-1.275zm14.834.18c1.635 0 2.94-.99 3.195-2.385h-1.2c-.24.795-.9 1.38-1.995 1.38-1.515 0-2.145-1.02-2.145-2.25v-.255h5.415v-1.2c0-1.875-1.095-3.36-3.315-3.36-2.205 0-3.405 1.41-3.405 3.495v1.2c0 2.1 1.41 3.375 3.45 3.375zm-2.145-4.515v-.195c0-1.335.555-2.355 2.1-2.355 1.41 0 2.055.945 2.055 2.235v.315zm7.391 4.335h1.335v-4.545c0-1.455.855-2.175 2.025-2.175 1.2 0 1.8.825 1.8 2.04v4.68h1.335v-4.545c0-1.455.855-2.175 2.025-2.175 1.2 0 1.785.825 1.785 2.04v4.68h1.35v-4.875c0-1.83-1.095-3.015-2.76-3.015-1.305 0-2.22.555-2.745 1.41-.45-.87-1.29-1.41-2.4-1.41-1.29 0-2.115.57-2.475 1.41v-1.23h-1.275zm17.036.18c2.205 0 3.48-1.5 3.48-3.42v-1.23c0-1.905-1.275-3.42-3.48-3.42-2.22 0-3.495 1.515-3.495 3.42v1.23c0 1.92 1.275 3.42 3.495 3.42zm0-1.065c-1.44 0-2.19-.975-2.19-2.34v-1.26c0-1.35.75-2.325 2.19-2.325 1.425 0 2.175.975 2.175 2.325v1.26c0 1.365-.75 2.34-2.175 2.34zm5.449.885h1.335v-3.735c0-1.845.885-2.745 2.31-2.745h.27v-1.275h-.195c-1.335 0-2.19.585-2.46 1.755v-1.71h-1.26zm6.822 2.61h1.32l.96-2.61 2.775-7.71h-1.32l-2.115 6.315-2.19-6.315h-1.32l2.82 7.71zm14.107-2.4c2.49 0 4.05-1.725 4.2-3.735h-1.305c-.18 1.38-1.095 2.595-2.91 2.595-2.055 0-3.015-1.44-3.015-3.405v-1.83c0-1.965.96-3.405 3.015-3.405 1.815 0 2.73 1.215 2.91 2.595h1.305c-.15-2.01-1.71-3.735-4.2-3.735-2.955 0-4.41 1.98-4.41 4.605v1.71c0 2.625 1.455 4.605 4.41 4.605zm9.408-.03c2.205 0 3.48-1.5 3.48-3.42v-1.23c0-1.905-1.275-3.42-3.48-3.42-2.22 0-3.495 1.515-3.495 3.42v1.23c0 1.92 1.275 3.42 3.495 3.42zm0-1.065c-1.44 0-2.19-.975-2.19-2.34v-1.26c0-1.35.75-2.325 2.19-2.325 1.425 0 2.175.975 2.175 2.325v1.26c0 1.365-.75 2.34-2.175 2.34zm5.449.885h1.335v-4.545c0-1.455.885-2.175 2.07-2.175 1.29 0 1.83.825 1.83 2.04v4.68h1.35v-4.875c0-1.86-1.095-3.015-2.805-3.015-1.29 0-2.145.57-2.505 1.41v-1.23h-1.275zm11.489 0h1.065v-1.095h-.78c-.795 0-1.05-.3-1.05-1.02v-4.5h1.89v-1.095h-1.89v-2.19h-1.35v2.19h-1.26v1.095h1.26v4.53c0 1.32.63 2.085 2.115 2.085zm2.91 0h1.335v-3.735c0-1.845.885-2.745 2.31-2.745h.27v-1.275h-.195c-1.335 0-2.19.585-2.46 1.755v-1.71h-1.26zm8.438.18c2.205 0 3.48-1.5 3.48-3.42v-1.23c0-1.905-1.275-3.42-3.48-3.42-2.22 0-3.495 1.515-3.495 3.42v1.23c0 1.92 1.275 3.42 3.495 3.42zm0-1.065c-1.44 0-2.19-.975-2.19-2.34v-1.26c0-1.35.75-2.325 2.19-2.325 1.425 0 2.175.975 2.175 2.325v1.26c0 1.365-.75 2.34-2.175 2.34zm5.509.885h1.35v-10.95h-1.35zm3.809 0h1.35v-10.95h-1.35zm6.823.18c1.635 0 2.94-.99 3.195-2.385h-1.2c-.24.795-.9 1.38-1.995 1.38-1.515 0-2.145-1.02-2.145-2.25v-.255h5.415v-1.2c0-1.875-1.095-3.36-3.315-3.36-2.205 0-3.405 1.41-3.405 3.495v1.2c0 2.1 1.41 3.375 3.45 3.375zm-2.145-4.515v-.195c0-1.335.555-2.355 2.1-2.355 1.41 0 2.055.945 2.055 2.235v.315zm7.391 4.335h1.335v-3.735c0-1.845.885-2.745 2.31-2.745h.27v-1.275h-.195c-1.335 0-2.19.585-2.46 1.755v-1.71h-1.26z" fill="#191927"/><path d="m10.2656 454h445v30h-445z" fill="#cae5f2"/><path d="m170.006 475h1.305v-7.845l2.685 5.31h1.29l2.685-5.31v7.845h1.305v-10.5h-1.275l-3.36 6.72-3.36-6.72h-1.275zm14.834.18c1.635 0 2.94-.99 3.195-2.385h-1.2c-.24.795-.9 1.38-1.995 1.38-1.515 0-2.145-1.02-2.145-2.25v-.255h5.415v-1.2c0-1.875-1.095-3.36-3.315-3.36-2.205 0-3.405 1.41-3.405 3.495v1.2c0 2.1 1.41 3.375 3.45 3.375zm-2.145-4.515v-.195c0-1.335.555-2.355 2.1-2.355 1.41 0 2.055.945 2.055 2.235v.315zm7.391 4.335h1.335v-4.545c0-1.455.855-2.175 2.025-2.175 1.2 0 1.8.825 1.8 2.04v4.68h1.335v-4.545c0-1.455.855-2.175 2.025-2.175 1.2 0 1.785.825 1.785 2.04v4.68h1.35v-4.875c0-1.83-1.095-3.015-2.76-3.015-1.305 0-2.22.555-2.745 1.41-.45-.87-1.29-1.41-2.4-1.41-1.29 0-2.115.57-2.475 1.41v-1.23h-1.275zm17.036.18c2.205 0 3.48-1.5 3.48-3.42v-1.23c0-1.905-1.275-3.42-3.48-3.42-2.22 0-3.495 1.515-3.495 3.42v1.23c0 1.92 1.275 3.42 3.495 3.42zm0-1.065c-1.44 0-2.19-.975-2.19-2.34v-1.26c0-1.35.75-2.325 2.19-2.325 1.425 0 2.175.975 2.175 2.325v1.26c0 1.365-.75 2.34-2.175 2.34zm5.449.885h1.335v-3.735c0-1.845.885-2.745 2.31-2.745h.27v-1.275h-.195c-1.335 0-2.19.585-2.46 1.755v-1.71h-1.26zm6.822 2.61h1.32l.96-2.61 2.775-7.71h-1.32l-2.115 6.315-2.19-6.315h-1.32l2.82 7.71zm14.107-2.4c2.49 0 4.05-1.725 4.2-3.735h-1.305c-.18 1.38-1.095 2.595-2.91 2.595-2.055 0-3.015-1.44-3.015-3.405v-1.83c0-1.965.96-3.405 3.015-3.405 1.815 0 2.73 1.215 2.91 2.595h1.305c-.15-2.01-1.71-3.735-4.2-3.735-2.955 0-4.41 1.98-4.41 4.605v1.71c0 2.625 1.455 4.605 4.41 4.605zm9.408-.03c2.205 0 3.48-1.5 3.48-3.42v-1.23c0-1.905-1.275-3.42-3.48-3.42-2.22 0-3.495 1.515-3.495 3.42v1.23c0 1.92 1.275 3.42 3.495 3.42zm0-1.065c-1.44 0-2.19-.975-2.19-2.34v-1.26c0-1.35.75-2.325 2.19-2.325 1.425 0 2.175.975 2.175 2.325v1.26c0 1.365-.75 2.34-2.175 2.34zm5.449.885h1.335v-4.545c0-1.455.885-2.175 2.07-2.175 1.29 0 1.83.825 1.83 2.04v4.68h1.35v-4.875c0-1.86-1.095-3.015-2.805-3.015-1.29 0-2.145.57-2.505 1.41v-1.23h-1.275zm11.489 0h1.065v-1.095h-.78c-.795 0-1.05-.3-1.05-1.02v-4.5h1.89v-1.095h-1.89v-2.19h-1.35v2.19h-1.26v1.095h1.26v4.53c0 1.32.63 2.085 2.115 2.085zm2.91 0h1.335v-3.735c0-1.845.885-2.745 2.31-2.745h.27v-1.275h-.195c-1.335 0-2.19.585-2.46 1.755v-1.71h-1.26zm8.438.18c2.205 0 3.48-1.5 3.48-3.42v-1.23c0-1.905-1.275-3.42-3.48-3.42-2.22 0-3.495 1.515-3.495 3.42v1.23c0 1.92 1.275 3.42 3.495 3.42zm0-1.065c-1.44 0-2.19-.975-2.19-2.34v-1.26c0-1.35.75-2.325 2.19-2.325 1.425 0 2.175.975 2.175 2.325v1.26c0 1.365-.75 2.34-2.175 2.34zm5.509.885h1.35v-10.95h-1.35zm3.809 0h1.35v-10.95h-1.35zm6.823.18c1.635 0 2.94-.99 3.195-2.385h-1.2c-.24.795-.9 1.38-1.995 1.38-1.515 0-2.145-1.02-2.145-2.25v-.255h5.415v-1.2c0-1.875-1.095-3.36-3.315-3.36-2.205 0-3.405 1.41-3.405 3.495v1.2c0 2.1 1.41 3.375 3.45 3.375zm-2.145-4.515v-.195c0-1.335.555-2.355 2.1-2.355 1.41 0 2.055.945 2.055 2.235v.315zm7.391 4.335h1.335v-3.735c0-1.845.885-2.745 2.31-2.745h.27v-1.275h-.195c-1.335 0-2.19.585-2.46 1.755v-1.71h-1.26z" fill="#191927"/><path d="m202.562 315h6.63v-1.155h-5.25v-9.345h-1.38zm8.24 0h6.885v-1.11h-5.28l3.48-3.495c.885-.87 1.8-1.845 1.8-3.18 0-1.785-1.41-2.925-3.36-2.925-1.995 0-3.36 1.095-3.36 3.06v.285h1.29v-.225c0-1.275.81-2.01 2.07-2.01 1.155 0 2.01.72 2.01 1.815 0 .795-.435 1.455-1.14 2.175l-4.395 4.56zm16.221.21c2.265 0 3.96-1.215 3.96-3.15 0-1.365-.885-2.235-2.235-2.595l-3-.795c-.84-.225-1.215-.69-1.215-1.5 0-1.17.96-1.8 2.355-1.8 1.545 0 2.415.825 2.415 1.98v.225h1.275v-.255c0-1.8-1.5-3.03-3.69-3.03-2.205 0-3.69 1.11-3.69 2.985 0 1.29.615 2.145 2.145 2.535l2.925.765c.915.24 1.38.795 1.38 1.59 0 1.26-.99 1.965-2.61 1.965-1.665 0-2.67-.855-2.67-2.1v-.24h-1.305v.27c0 1.95 1.665 3.15 3.96 3.15zm6.155-.21h1.38v-3.735h3l2.085 3.735h1.59l-2.265-3.945c1.395-.48 2.22-1.695 2.22-3.165 0-1.89-1.245-3.39-3.585-3.39h-4.425zm1.38-4.83v-4.545h2.865c1.56 0 2.385.96 2.385 2.265s-.795 2.28-2.385 2.28zm8.123 4.83h1.365l.885-2.565h4.665l.915 2.565h1.365l-3.915-10.5h-1.38zm2.625-3.66 1.965-5.595 1.95 5.595zm8.394 3.66h1.305v-7.845l2.685 5.31h1.29l2.685-5.31v7.845h1.305v-10.5h-1.275l-3.36 6.72-3.36-6.72h-1.275z" fill="#fff"/><path d="m10.2656 174h217.5v30h-217.5z" fill="#21b5c2"/><path d="m10.2656 354h217.5v30h-217.5z" fill="#21b5c2"/><path d="m237.766 174h217.5v30h-217.5z" fill="#21b5c2"/><path d="m237.766 354h217.5v30h-217.5z" fill="#21b5c2"/><path d="m10.2656 204h217.5v60h-217.5z" fill="#5436da"/><path d="m10.2656 384h217.5v60h-217.5z" fill="#5436da"/><path d="m237.766 204h217.5v60h-217.5z" fill="#5436da"/><path d="m237.766 384h217.5v60h-217.5z" fill="#5436da"/><g fill="#fff"><path d="m90.592 195h6.63v-1.155h-5.25v-9.345h-1.38zm9.889 0h1.365v-10.5h-1.125l-2.4297 1.155v1.245l2.1897-.99zm11.011.21c2.265 0 3.96-1.215 3.96-3.15 0-1.365-.885-2.235-2.235-2.595l-3-.795c-.84-.225-1.215-.69-1.215-1.5 0-1.17.96-1.8 2.355-1.8 1.545 0 2.415.825 2.415 1.98v.225h1.275v-.255c0-1.8-1.5-3.03-3.69-3.03-2.205 0-3.69 1.11-3.69 2.985 0 1.29.615 2.145 2.145 2.535l2.925.765c.915.24 1.38.795 1.38 1.59 0 1.26-.99 1.965-2.61 1.965-1.665 0-2.67-.855-2.67-2.1v-.24h-1.305v.27c0 1.95 1.665 3.15 3.96 3.15zm6.156-.21h1.38v-3.735h3l2.085 3.735h1.59l-2.265-3.945c1.395-.48 2.22-1.695 2.22-3.165 0-1.89-1.245-3.39-3.585-3.39h-4.425zm1.38-4.83v-4.545h2.865c1.56 0 2.385.96 2.385 2.265s-.795 2.28-2.385 2.28zm8.122 4.83h1.365l.885-2.565h4.665l.915 2.565h1.365l-3.915-10.5h-1.38zm2.625-3.66 1.965-5.595 1.95 5.595zm8.395 3.66h1.305v-7.845l2.685 5.31h1.29l2.685-5.31v7.845h1.305v-10.5h-1.275l-3.36 6.72-3.36-6.72h-1.275z"/><path d="m90.592 375h6.63v-1.155h-5.25v-9.345h-1.38zm9.889 0h1.365v-10.5h-1.125l-2.4297 1.155v1.245l2.1897-.99zm11.011.21c2.265 0 3.96-1.215 3.96-3.15 0-1.365-.885-2.235-2.235-2.595l-3-.795c-.84-.225-1.215-.69-1.215-1.5 0-1.17.96-1.8 2.355-1.8 1.545 0 2.415.825 2.415 1.98v.225h1.275v-.255c0-1.8-1.5-3.03-3.69-3.03-2.205 0-3.69 1.11-3.69 2.985 0 1.29.615 2.145 2.145 2.535l2.925.765c.915.24 1.38.795 1.38 1.59 0 1.26-.99 1.965-2.61 1.965-1.665 0-2.67-.855-2.67-2.1v-.24h-1.305v.27c0 1.95 1.665 3.15 3.96 3.15zm6.156-.21h1.38v-3.735h3l2.085 3.735h1.59l-2.265-3.945c1.395-.48 2.22-1.695 2.22-3.165 0-1.89-1.245-3.39-3.585-3.39h-4.425zm1.38-4.83v-4.545h2.865c1.56 0 2.385.96 2.385 2.265s-.795 2.28-2.385 2.28zm8.122 4.83h1.365l.885-2.565h4.665l.915 2.565h1.365l-3.915-10.5h-1.38zm2.625-3.66 1.965-5.595 1.95 5.595zm8.395 3.66h1.305v-7.845l2.685 5.31h1.29l2.685-5.31v7.845h1.305v-10.5h-1.275l-3.36 6.72-3.36-6.72h-1.275z"/><path d="m318.092 195h6.63v-1.155h-5.25v-9.345h-1.38zm9.889 0h1.365v-10.5h-1.125l-2.43 1.155v1.245l2.19-.99zm11.011.21c2.265 0 3.96-1.215 3.96-3.15 0-1.365-.885-2.235-2.235-2.595l-3-.795c-.84-.225-1.215-.69-1.215-1.5 0-1.17.96-1.8 2.355-1.8 1.545 0 2.415.825 2.415 1.98v.225h1.275v-.255c0-1.8-1.5-3.03-3.69-3.03-2.205 0-3.69 1.11-3.69 2.985 0 1.29.615 2.145 2.145 2.535l2.925.765c.915.24 1.38.795 1.38 1.59 0 1.26-.99 1.965-2.61 1.965-1.665 0-2.67-.855-2.67-2.1v-.24h-1.305v.27c0 1.95 1.665 3.15 3.96 3.15zm6.156-.21h1.38v-3.735h3l2.085 3.735h1.59l-2.265-3.945c1.395-.48 2.22-1.695 2.22-3.165 0-1.89-1.245-3.39-3.585-3.39h-4.425zm1.38-4.83v-4.545h2.865c1.56 0 2.385.96 2.385 2.265s-.795 2.28-2.385 2.28zm8.122 4.83h1.365l.885-2.565h4.665l.915 2.565h1.365l-3.915-10.5h-1.38zm2.625-3.66 1.965-5.595 1.95 5.595zm8.395 3.66h1.305v-7.845l2.685 5.31h1.29l2.685-5.31v7.845h1.305v-10.5h-1.275l-3.36 6.72-3.36-6.72h-1.275z"/><path d="m318.092 375h6.63v-1.155h-5.25v-9.345h-1.38zm9.889 0h1.365v-10.5h-1.125l-2.43 1.155v1.245l2.19-.99zm11.011.21c2.265 0 3.96-1.215 3.96-3.15 0-1.365-.885-2.235-2.235-2.595l-3-.795c-.84-.225-1.215-.69-1.215-1.5 0-1.17.96-1.8 2.355-1.8 1.545 0 2.415.825 2.415 1.98v.225h1.275v-.255c0-1.8-1.5-3.03-3.69-3.03-2.205 0-3.69 1.11-3.69 2.985 0 1.29.615 2.145 2.145 2.535l2.925.765c.915.24 1.38.795 1.38 1.59 0 1.26-.99 1.965-2.61 1.965-1.665 0-2.67-.855-2.67-2.1v-.24h-1.305v.27c0 1.95 1.665 3.15 3.96 3.15zm6.156-.21h1.38v-3.735h3l2.085 3.735h1.59l-2.265-3.945c1.395-.48 2.22-1.695 2.22-3.165 0-1.89-1.245-3.39-3.585-3.39h-4.425zm1.38-4.83v-4.545h2.865c1.56 0 2.385.96 2.385 2.265s-.795 2.28-2.385 2.28zm8.122 4.83h1.365l.885-2.565h4.665l.915 2.565h1.365l-3.915-10.5h-1.38zm2.625-3.66 1.965-5.595 1.95 5.595zm8.395 3.66h1.305v-7.845l2.685 5.31h1.29l2.685-5.31v7.845h1.305v-10.5h-1.275l-3.36 6.72-3.36-6.72h-1.275z"/><path d="m90.9736 240.21c2.49 0 4.05-1.725 4.2-3.735h-1.305c-.18 1.38-1.095 2.595-2.91 2.595-2.055 0-3.015-1.44-3.015-3.405v-1.83c0-1.965.96-3.405 3.015-3.405 1.815 0 2.73 1.215 2.91 2.595h1.305c-.15-2.01-1.71-3.735-4.2-3.735-2.955 0-4.41 1.98-4.41 4.605v1.71c0 2.625 1.455 4.605 4.41 4.605zm9.4074-.03c2.205 0 3.48-1.5 3.48-3.42v-1.23c0-1.905-1.275-3.42-3.48-3.42-2.2202 0-3.4952 1.515-3.4952 3.42v1.23c0 1.92 1.275 3.42 3.4952 3.42zm0-1.065c-1.4402 0-2.1902-.975-2.1902-2.34v-1.26c0-1.35.75-2.325 2.1902-2.325 1.425 0 2.175.975 2.175 2.325v1.26c0 1.365-.75 2.34-2.175 2.34zm5.449.885h1.335v-3.735c0-1.845.885-2.745 2.31-2.745h.27v-1.275h-.195c-1.335 0-2.19.585-2.46 1.755v-1.71h-1.26zm8.393.18c1.635 0 2.94-.99 3.195-2.385h-1.2c-.24.795-.9 1.38-1.995 1.38-1.515 0-2.145-1.02-2.145-2.25v-.255h5.415v-1.2c0-1.875-1.095-3.36-3.315-3.36-2.205 0-3.405 1.41-3.405 3.495v1.2c0 2.1 1.41 3.375 3.45 3.375zm-2.145-4.515v-.195c0-1.335.555-2.355 2.1-2.355 1.41 0 2.055.945 2.055 2.235v.315zm12.441 6.345h1.305c-1.23-2.61-1.77-4.635-1.77-6.87s.54-4.26 1.77-6.87h-1.305c-1.23 2.325-1.815 4.44-1.815 6.87s.585 4.545 1.815 6.87zm6.493-1.8c2.265 0 3.96-1.215 3.96-3.15 0-1.365-.885-2.235-2.235-2.595l-3-.795c-.84-.225-1.215-.69-1.215-1.5 0-1.17.96-1.8 2.355-1.8 1.545 0 2.415.825 2.415 1.98v.225h1.275v-.255c0-1.8-1.5-3.03-3.69-3.03-2.205 0-3.69 1.11-3.69 2.985 0 1.29.615 2.145 2.145 2.535l2.925.765c.915.24 1.38.795 1.38 1.59 0 1.26-.99 1.965-2.61 1.965-1.665 0-2.67-.855-2.67-2.1v-.24h-1.305v.27c0 1.95 1.665 3.15 3.96 3.15zm6.155-.21h1.305v-7.845l2.685 5.31h1.29l2.685-5.31v7.845h1.305v-10.5h-1.275l-3.36 6.72-3.36-6.72h-1.275zm11.084 2.01h1.305c1.215-2.325 1.815-4.44 1.815-6.87s-.6-4.545-1.815-6.87h-1.305c1.215 2.61 1.77 4.635 1.77 6.87s-.555 4.26-1.77 6.87z"/><path d="m90.9736 420.21c2.49 0 4.05-1.725 4.2-3.735h-1.305c-.18 1.38-1.095 2.595-2.91 2.595-2.055 0-3.015-1.44-3.015-3.405v-1.83c0-1.965.96-3.405 3.015-3.405 1.815 0 2.73 1.215 2.91 2.595h1.305c-.15-2.01-1.71-3.735-4.2-3.735-2.955 0-4.41 1.98-4.41 4.605v1.71c0 2.625 1.455 4.605 4.41 4.605zm9.4074-.03c2.205 0 3.48-1.5 3.48-3.42v-1.23c0-1.905-1.275-3.42-3.48-3.42-2.2202 0-3.4952 1.515-3.4952 3.42v1.23c0 1.92 1.275 3.42 3.4952 3.42zm0-1.065c-1.4402 0-2.1902-.975-2.1902-2.34v-1.26c0-1.35.75-2.325 2.1902-2.325 1.425 0 2.175.975 2.175 2.325v1.26c0 1.365-.75 2.34-2.175 2.34zm5.449.885h1.335v-3.735c0-1.845.885-2.745 2.31-2.745h.27v-1.275h-.195c-1.335 0-2.19.585-2.46 1.755v-1.71h-1.26zm8.393.18c1.635 0 2.94-.99 3.195-2.385h-1.2c-.24.795-.9 1.38-1.995 1.38-1.515 0-2.145-1.02-2.145-2.25v-.255h5.415v-1.2c0-1.875-1.095-3.36-3.315-3.36-2.205 0-3.405 1.41-3.405 3.495v1.2c0 2.1 1.41 3.375 3.45 3.375zm-2.145-4.515v-.195c0-1.335.555-2.355 2.1-2.355 1.41 0 2.055.945 2.055 2.235v.315zm12.441 6.345h1.305c-1.23-2.61-1.77-4.635-1.77-6.87s.54-4.26 1.77-6.87h-1.305c-1.23 2.325-1.815 4.44-1.815 6.87s.585 4.545 1.815 6.87zm6.493-1.8c2.265 0 3.96-1.215 3.96-3.15 0-1.365-.885-2.235-2.235-2.595l-3-.795c-.84-.225-1.215-.69-1.215-1.5 0-1.17.96-1.8 2.355-1.8 1.545 0 2.415.825 2.415 1.98v.225h1.275v-.255c0-1.8-1.5-3.03-3.69-3.03-2.205 0-3.69 1.11-3.69 2.985 0 1.29.615 2.145 2.145 2.535l2.925.765c.915.24 1.38.795 1.38 1.59 0 1.26-.99 1.965-2.61 1.965-1.665 0-2.67-.855-2.67-2.1v-.24h-1.305v.27c0 1.95 1.665 3.15 3.96 3.15zm6.155-.21h1.305v-7.845l2.685 5.31h1.29l2.685-5.31v7.845h1.305v-10.5h-1.275l-3.36 6.72-3.36-6.72h-1.275zm11.084 2.01h1.305c1.215-2.325 1.815-4.44 1.815-6.87s-.6-4.545-1.815-6.87h-1.305c1.215 2.61 1.77 4.635 1.77 6.87s-.555 4.26-1.77 6.87z"/><path d="m318.474 240.21c2.49 0 4.05-1.725 4.2-3.735h-1.305c-.18 1.38-1.095 2.595-2.91 2.595-2.055 0-3.015-1.44-3.015-3.405v-1.83c0-1.965.96-3.405 3.015-3.405 1.815 0 2.73 1.215 2.91 2.595h1.305c-.15-2.01-1.71-3.735-4.2-3.735-2.955 0-4.41 1.98-4.41 4.605v1.71c0 2.625 1.455 4.605 4.41 4.605zm9.407-.03c2.205 0 3.48-1.5 3.48-3.42v-1.23c0-1.905-1.275-3.42-3.48-3.42-2.22 0-3.495 1.515-3.495 3.42v1.23c0 1.92 1.275 3.42 3.495 3.42zm0-1.065c-1.44 0-2.19-.975-2.19-2.34v-1.26c0-1.35.75-2.325 2.19-2.325 1.425 0 2.175.975 2.175 2.325v1.26c0 1.365-.75 2.34-2.175 2.34zm5.449.885h1.335v-3.735c0-1.845.885-2.745 2.31-2.745h.27v-1.275h-.195c-1.335 0-2.19.585-2.46 1.755v-1.71h-1.26zm8.393.18c1.635 0 2.94-.99 3.195-2.385h-1.2c-.24.795-.9 1.38-1.995 1.38-1.515 0-2.145-1.02-2.145-2.25v-.255h5.415v-1.2c0-1.875-1.095-3.36-3.315-3.36-2.205 0-3.405 1.41-3.405 3.495v1.2c0 2.1 1.41 3.375 3.45 3.375zm-2.145-4.515v-.195c0-1.335.555-2.355 2.1-2.355 1.41 0 2.055.945 2.055 2.235v.315zm12.441 6.345h1.305c-1.23-2.61-1.77-4.635-1.77-6.87s.54-4.26 1.77-6.87h-1.305c-1.23 2.325-1.815 4.44-1.815 6.87s.585 4.545 1.815 6.87zm6.493-1.8c2.265 0 3.96-1.215 3.96-3.15 0-1.365-.885-2.235-2.235-2.595l-3-.795c-.84-.225-1.215-.69-1.215-1.5 0-1.17.96-1.8 2.355-1.8 1.545 0 2.415.825 2.415 1.98v.225h1.275v-.255c0-1.8-1.5-3.03-3.69-3.03-2.205 0-3.69 1.11-3.69 2.985 0 1.29.615 2.145 2.145 2.535l2.925.765c.915.24 1.38.795 1.38 1.59 0 1.26-.99 1.965-2.61 1.965-1.665 0-2.67-.855-2.67-2.1v-.24h-1.305v.27c0 1.95 1.665 3.15 3.96 3.15zm6.155-.21h1.305v-7.845l2.685 5.31h1.29l2.685-5.31v7.845h1.305v-10.5h-1.275l-3.36 6.72-3.36-6.72h-1.275zm11.084 2.01h1.305c1.215-2.325 1.815-4.44 1.815-6.87s-.6-4.545-1.815-6.87h-1.305c1.215 2.61 1.77 4.635 1.77 6.87s-.555 4.26-1.77 6.87z"/><path d="m318.474 420.21c2.49 0 4.05-1.725 4.2-3.735h-1.305c-.18 1.38-1.095 2.595-2.91 2.595-2.055 0-3.015-1.44-3.015-3.405v-1.83c0-1.965.96-3.405 3.015-3.405 1.815 0 2.73 1.215 2.91 2.595h1.305c-.15-2.01-1.71-3.735-4.2-3.735-2.955 0-4.41 1.98-4.41 4.605v1.71c0 2.625 1.455 4.605 4.41 4.605zm9.407-.03c2.205 0 3.48-1.5 3.48-3.42v-1.23c0-1.905-1.275-3.42-3.48-3.42-2.22 0-3.495 1.515-3.495 3.42v1.23c0 1.92 1.275 3.42 3.495 3.42zm0-1.065c-1.44 0-2.19-.975-2.19-2.34v-1.26c0-1.35.75-2.325 2.19-2.325 1.425 0 2.175.975 2.175 2.325v1.26c0 1.365-.75 2.34-2.175 2.34zm5.449.885h1.335v-3.735c0-1.845.885-2.745 2.31-2.745h.27v-1.275h-.195c-1.335 0-2.19.585-2.46 1.755v-1.71h-1.26zm8.393.18c1.635 0 2.94-.99 3.195-2.385h-1.2c-.24.795-.9 1.38-1.995 1.38-1.515 0-2.145-1.02-2.145-2.25v-.255h5.415v-1.2c0-1.875-1.095-3.36-3.315-3.36-2.205 0-3.405 1.41-3.405 3.495v1.2c0 2.1 1.41 3.375 3.45 3.375zm-2.145-4.515v-.195c0-1.335.555-2.355 2.1-2.355 1.41 0 2.055.945 2.055 2.235v.315zm12.441 6.345h1.305c-1.23-2.61-1.77-4.635-1.77-6.87s.54-4.26 1.77-6.87h-1.305c-1.23 2.325-1.815 4.44-1.815 6.87s.585 4.545 1.815 6.87zm6.493-1.8c2.265 0 3.96-1.215 3.96-3.15 0-1.365-.885-2.235-2.235-2.595l-3-.795c-.84-.225-1.215-.69-1.215-1.5 0-1.17.96-1.8 2.355-1.8 1.545 0 2.415.825 2.415 1.98v.225h1.275v-.255c0-1.8-1.5-3.03-3.69-3.03-2.205 0-3.69 1.11-3.69 2.985 0 1.29.615 2.145 2.145 2.535l2.925.765c.915.24 1.38.795 1.38 1.59 0 1.26-.99 1.965-2.61 1.965-1.665 0-2.67-.855-2.67-2.1v-.24h-1.305v.27c0 1.95 1.665 3.15 3.96 3.15zm6.155-.21h1.305v-7.845l2.685 5.31h1.29l2.685-5.31v7.845h1.305v-10.5h-1.275l-3.36 6.72-3.36-6.72h-1.275zm11.084 2.01h1.305c1.215-2.325 1.815-4.44 1.815-6.87s-.6-4.545-1.815-6.87h-1.305c1.215 2.61 1.77 4.635 1.77 6.87s-.555 4.26-1.77 6.87z"/></g><path d="m230.266 124h5l-2.5 10z" fill="#8e8ea0"/><path d="m235.266 64h-5l2.5-10z" fill="#8e8ea0"/><path d="m232.766 59.6055v35.7467 35.7468" stroke="#8e8ea0" stroke-miterlimit="16"/><path d="m230.266 553.891h5l-2.5 10z" fill="#8e8ea0"/><path d="m235.266 493.891h-5l2.5-10z" fill="#8e8ea0"/><path d="m232.766 489.496v35.747 35.747" stroke="#8e8ea0" stroke-miterlimit="16"/></g></svg>